<svg width="319" height="110" fill="none" xmlns="http://www.w3.org/2000/svg"><g clip-path="url(#a)"><path fill-rule="evenodd" clip-rule="evenodd" d="M28 33.2c.8-1 2-1.7 3.6-1.7 2.7 0 4.6 1.9 4.5 4.9v6.1h-2v-5.7c0-1.8-1.1-3.2-2.9-3.2-2 0-3.3 1.5-3.3 3.6v5.3h-2V27h2v6.2h.1Zm-8 9.3v-2.6h2.5v2.6H20Zm26.6-10.7h-4.8v-3.7h-2v3.8h-1.9v2h1.9v6c0 1.7 1 2.7 2.7 2.7h4.1v-2h-3.7c-.7 0-1.1-.4-1.1-1.1v-5.7h4.8v-2Zm11 1.9a3.7 3.7 0 0 1 3.5-2.1c2.5 0 4 1.8 3.9 4.3v6.5h-2v-6.3c0-1.6-.9-2.6-2.4-2.6-1.2 0-2.6.9-2.6 3.3v5.6h-2v-6.3c0-1.6-.9-2.6-2.4-2.6C52 33.5 51 35 51 37v5.4h-2V31.8h1.9v1.6h.1c.6-1 1.7-1.8 3.1-1.8 1.6 0 2.8.9 3.4 2.1h.1Zm10.2 6c0 1.7 1 2.7 2.8 2.7h2v-2h-1.7c-.7 0-1.1-.4-1.1-1.1V27h-2v12.7ZM45 44.9c1.7 0 3 .7 3.9 1.8v-1.5h2v10.6h-2v-1.6h-.1c-.8 1.1-2 1.9-3.8 1.9-3.1 0-5.4-2.3-5.4-5.6s2.3-5.6 5.4-5.6Zm-3.3 5.6c0 2 1.4 3.6 3.6 3.6s3.6-1.7 3.6-3.6c0-2-1.4-3.6-3.6-3.6a3.5 3.5 0 0 0-3.6 3.6ZM64.2 49c-.5-2.4-2.6-4.1-5.4-4.1a5.4 5.4 0 0 0-5.6 5.6c0 3.1 2.2 5.6 5.6 5.6 2.8 0 4.9-1.8 5.4-4.2h-2.1a3.4 3.4 0 0 1-3.3 2.3 3.5 3.5 0 0 1-3.6-3.6c0-2 1.4-3.6 3.6-3.6 1.6 0 2.8 1 3.3 2.2h2.1V49Zm7-4.1c1.7 0 3 .7 3.9 1.8v-1.5h2v10.6h-2v-1.6H75c-.8 1.1-2 1.9-3.8 1.9-3.1 0-5.4-2.3-5.4-5.6s2.3-5.6 5.4-5.6Zm-3.3 5.6c0 2 1.4 3.6 3.6 3.6 2.1 0 3.6-1.7 3.6-3.6 0-2-1.4-3.6-3.6-3.6a3.5 3.5 0 0 0-3.6 3.6Zm20.8-3.7a5 5 0 0 0-3.9-1.9c-3.1 0-5.4 2.3-5.4 5.6s2.2 5.6 5.4 5.6c1.7 0 3-.8 3.8-1.8h.1v1.5h2V40.4h-2v6.4Zm-3.6 7.3a3.5 3.5 0 0 1-3.6-3.6c0-2 1.4-3.6 3.6-3.6s3.6 1.6 3.6 3.6c-.1 2-1.5 3.6-3.6 3.6Zm7.7-3.6c0-3.1 2.2-5.6 5.5-5.6 3.5 0 5.7 2.7 5.5 6.3H95c.1 1.6 1.5 2.9 3.4 2.9 1.4 0 2.5-.6 3-1.6h2.1c-.7 2.3-2.7 3.6-5.2 3.6-3.4 0-5.5-2.6-5.5-5.6Zm8.8-1.1c-.3-1.6-1.6-2.6-3.3-2.6a3.2 3.2 0 0 0-3.2 2.6h6.5Zm16.6-4.5a4 4 0 0 0-3.6 2h-.1c-.6-1.2-1.8-2-3.4-2-1.4 0-2.5.7-3.1 1.8v-1.5h-1.9v10.6h2v-5.4c0-2 1-3.4 2.6-3.5 1.5 0 2.4 1 2.4 2.6v6.3h2v-5.6c0-2.4 1.4-3.3 2.6-3.3 1.5 0 2.4 1 2.4 2.6v6.3h2v-6.5c.1-2.6-1.4-4.4-3.9-4.4Zm7.6.2 3.6 8.9 3.4-8.9h2.1l-4.7 12.2c-.7 1.8-1.7 2.6-3.5 2.6h-2.5v-2h2.5c1 0 1.4-.3 1.7-1.2l-4.8-11.6h2.2Z" fill="#000"/></g><g clip-path="url(#b)"><path d="M293 20H155l59.5 65.7a12.5 12.5 0 0 0 19 0L293 20Z" fill="#81B3D3"/><path d="m191.7 20.5 32.1 37.9 32-37.7-64.1-.2Z" fill="#23A9E1"/><path d="M216.1 34.7h17.3c-1.3-.8-4.4-4.6-6-3.2-.1.1-4.9-5.7-8-2.9-2.7 2.5-4-.3-7 1.6-3.6 2.4 2 3.7 3.7 4.5Zm26.7-3.5-9.8.1c3.9-4.5 5.6-4 9.8-.1Z" fill="#fff"/><path d="M252.6 23.6v-2.4h2.1l-2.1 2.4ZM203.4 33c.1.1 2.4-2.4 6.1-4.9 3.4-2.3 8.6-4.9 14.4-4.9a27 27 0 0 1 14.5 5c3.7 2.4 6 4.8 6.1 4.9l-2.5 3c-4.5.6-7.7 3.9-12.1 3.2-2.2-.4-2.3-1.6-2.9-2.9-.5-1-1.3-.8-2.3-1.2-.9-.4-1.5-1.1-3.4-.7-1.6.4-1.8 2.9-3.9 2.8-1.1-.1-1.2-1.6-2.8-3.6-4.1-4.9-7.8-4.3-10.4.2l-.8-.9ZM195 21.2v1.9l-1.6-1.9h1.6Zm53.9 0h3.2v3l-3.2 3.8v-6.8Zm-4.1 11.4V21.2h3.5v7.4l-3.5 4Zm-.5-10.4v9.9a26 26 0 0 0-3.6-3l3.6-6.9Zm-4.1-.3v6.8l-1.5-1-2.2-1.3 3.7-4.5Zm-4.4-.2V26l-3.1-1.5 3.1-2.8Zm.6-.5h3.7l-3.7 4.6v-4.6Zm4.3 0h3.6l-3.6 7.1v-7.1Zm-8.8 0h3.9l-3.5 3.1-.3-.1-.1-3Zm-.5.4V24c-1-.4-2-.7-3.1-.9l3.1-1.5Zm-4.2 0v1.3l-2.2-.3 2.2-1Zm-6.8 0 2.2 1c-.8 0-1.5.1-2.2.3v-1.3Zm-4.1 0 3.1 1.5c-1.1.2-2.1.5-3.1.9v-2.4Zm3.6 1.2-3.3-1.6h3.3v1.6Zm3.5-.4-2.8-1.3h2.8v1.3Zm.7-1.2h2.9l-2.9 1.3v-1.3Zm3.7 0h3.2l-3.2 1.6v-1.6Zm-12.4 3.1-3.5-3.1h3.9v3l-.4.1Zm-3.6-2.6 3.1 2.7c-1.1.4-2.1.9-3.1 1.5v-4.2Zm-4.3.2 3.6 4.5c-1.3.7-2.5 1.5-3.6 2.4v-6.9Zm-4.2.3 3.6 7c-1.3 1-2.5 2-3.6 3.2V22.2Zm3.7 6-3.6-7.1h3.6v7.1Zm4.3-2.5-3.7-4.6h3.7v4.6Zm-12.6 1.8-3.2-3.8v-2.5h3.2v6.3Zm.6-6.3h3.5v11.2l-3.5-4.2v-7ZM191 20v14.6l33 39.9L257 35V20h-66Z" fill="#491213"/><path d="m221.4 66 2.6-4.2 2.6 4.2-2.6 4.2-2.6-4.2Z" fill="#23A9E1"/><path d="M229.2 50.6c-3.4-2-2.6-3.5.2-4.9 1.5-.7 4.8-3.4 6.1-2.5l-6.3 7.4Zm-2.3 2.5c-2-.1-4.3-.4-6.3.1 1.2.3 4.2 1.2 1.4 1.9 1 1.4 2.6 1.3 3.6.1l-1-.7c1.1-.3 2.1-.9 2.3-1.4Zm1.2-1.6c-.9-.8-1.9-.8-2.7 0-1.2-2.1-5.4-1.4-7.4-1.7 1.1 2.6 9.6 3.1 10.1 1.7Zm-6.8-2.2c-1.6-.5-6.8-.4-3.4-1.8 1.1-.4 6.7.1 3.4 1.8Zm2-3c-.5-1.1.4-2.4 1.7-1.4 1.2.8-.6 2-1.7 1.4Zm-2.9.1c-2.3.7-5.3-.8-1.6-1.5 2.3-.5 4.7.5 1.6 1.5.1 0-.1 0 0 0Zm-2.6-6.2c-.5 1.6-1.5 1.9-1.4 0 .1-2.3 1.6-1.7 3.2-2.6 1.3-.7 2-3.4 4.3-1.8 1 .7 2.2.1 2.5 1.2 0-.1-2.9 6.7-1.3 6.7-3.2 0-1.8-3.8-.6-6.4-1.2.6-3.1 4.3-1.5 5-.8 1.1-3.4 2.6-4.7 1.5-1.1-1-.5-2.3-.5-3.6Zm-4 2.8c-5.6 0-1.8-8.6.1-8.1 2.2.7 1.9 8.2-.1 8.1Zm-6.2-8.2c-2.6-.1-1.5-2.6.3-3.1 1.7-.5 5.2 1.1 6.4 2.2-1.8.6-4.1.5-6.1.6-.2-2-.7-1.3-.6.3Z" fill="#DC6243"/><path d="M226.8 45.8c-2.9-3 4.3-2.7 5.5-3.8.8.3 7-5.4 8.5-5-1.1 1.3-3.4 5.3-5 5.3-1.3 0-2.6-.2-3.6.7-1.5 1.4-3.9 2.1-5.4 2.8Z" fill="#F49774"/><path d="M227.7 42.2c-1.6.9-3.1-2.5-.3-2.2 1.8.2 3.7-.2 5.4.1a5.9 5.9 0 0 1-5.1 2.1Z" fill="#F4B1A4"/><path d="M206.1 40.9c.3.4.6.8.5 1.4 0 .4-.6 1-.2 1.2l1.5-1.8a20 20 0 0 1-3.5-4.2l-2.1 1.1c.1.4.8 0 1.2 0 .5 0 .9.4 1.3.7-1.1.9-3.8 3.3-4.1 3.3-.1 0-.7-.4-.7 0 0 .2.6.7.7.8l1.4 1.7c.4-.2-.1-.5.1-.8l3.9-3.4Zm-3.4-4.5c.3-.1.4.3.6 0l-1.6-1.9c-.2-.3-.5-.6-.5 0 .1.4-4 3.7-4.2 3.8-.3.1-.5-.3-.7.1l1.4 1.7.5.6c.2.2.1-.4.1-.4a23.4 23.4 0 0 1 4.4-3.9Zm-5.7-.6c-1.1.3-2.4-.1-2.7-1.3-.4-1.2.4-2.4 1.3-3.1.9-.7 2.3-.6 2.8.5.2.5.1 1.1-.1 1.6-.1.3-.4.6 0 .8l1.7-2.1c-.7-.4-1-1.1-1.5-1.7-.6-.7-1.3-1.4-2.3-1.5-1.9-.3-3.6 1.7-3.8 3.4-.1.9.2 1.8.8 2.6.5.6 1.2 1.1 1.6 1.8.2.1 1.8-.7 2.1-.8.2 0 .1-.1.1-.2-.5.2 0 0 0 0Zm25.5 23.6c-.7-.5-2.6-3-3-3.5l-.2-.3-.2.1v.6c-.5.8-3.7 3.2-3.9 3.4-.4.2-.8-.1-1 .2.5.6 1.8 2.3 2 2.3.3 0 .1-.5.1-.6l2.3-2.1c.2-.2.4.3.6.5.2.3.3.7.2 1-.1.2-.5.6-.2.8l1.7-2c.2-.2-.4 0-.3-.1-.2.1-.5.2-.7 0-.1 0-.7-.7-.6-.8.3-.2.6-.6 1-.7.6-.1 1 1 1.1 1.4.1.4.1.8-.1 1.1-.1.3-.3.5 0 .6l1.4-1.9c0 .1-.1.1-.2 0-.1 0 .1.1 0 0Zm-9.2-8.9c-.7 0-1.4.3-2 .8a3.6 3.6 0 0 0-.5 4.8c1.3 1.7 3.4 1.9 5.1.7a3.6 3.6 0 0 0 .5-4.8 4 4 0 0 0-3.1-1.5Zm1.2 1.4c.9-.1 1.5.8 1.1 1.8-.4 1-1.4 2-2.4 2.4-1.2.5-2-.5-1.5-1.7.4-1 1.4-2 2.4-2.4l.4-.1Zm-2.8-4.6c.3 0 .6.4.8 0l-1.4-1.7c-.4.2 0 .4-.1.6-.2.3-1.7.5-2.1.6a6 6 0 0 1 .8-1.8c.4-.3.6.3.8-.1l-1.8-2.1c-.2-.2-.4-.7-.6-.4l-.1 1.1c-.1.2-.6 2.4-1.2 2.9a11 11 0 0 1-1.8 1.4c-.3.1-.5-.4-.8 0l1.6 1.9.5.6c.3.1 0-.6.1-.7.1-.3 1.6-1.8 2.3-1.9.9-.2 2-.5 3-.4.2 0-.2 0 0 0Zm24.2 6.7c.1.4.2.9.1 1.3-.1.6-.6 1.9-1.4 1.5-.8-.4-1.4-1.1-2.1-1.7.5-.6 1-1.1 1.9-.8.2.1.4 0 .2-.2a12 12 0 0 0-2.1-1.2c-.2.2.3.6.1 1l-.6.8c-.5-.4-1.2-.8-.7-1.5.4-.4.8-.8 1.4-.9.4-.1 1.2.3 1.3-.1l-2.1-1c.1.5-2.2 2.9-2.7 3.5l-.4.5c0 .3.4.1.4.1.3-.1 4.4 3.3 4.5 3.6v.5l.2.1c.3-.3 2.9-3.9 3.5-4l-1.5-2.4c-.4.2-.1.7 0 .9Zm-4 4.4c-1.3-.9-3.6.8-4 1-.7.3-1.2-.4-.8-1 .3-.5.9-.8 1.5-.8h.9c.1-.1.1-.1 0-.2l-1.7-1.1c-.1.7-.9 1.1-1.3 1.6-.5.6-1 1.3-1 2s.4 1.4 1.1 1.7c.7.4 1.5.1 2.2-.3l1.2-.8c.6-.3 1.5 0 1.3.8-.2.7-.9 1.3-1.6 1.5-.4.1-.8.1-1.2-.1-.3-.1-.6-.5-.8-.1l2.3 1.6c.1-.5.3-.7.7-1l1.3-1.4c.8-.9 1.1-2.5-.1-3.4Zm17.6-28.1c0 .1 0 .1 0 0l-.9 1-.8 1c-.2.2-.3.3 0 .5.5-.3 3.5 4.8 3.3 5.5a20 20 0 0 1-4.6-3.5c0-.1.2-.7-.1-.6l-.6.7-.6.7c.2.3.3 0 .6 0l1.5 1.1-1.9.1c-.6.1-.3-.4-.7-.6l-1.5 1.8-.9 1v.1c.2.2.1.1.4 0 .3-.1 4.3 3.2 4.4 3.4.2.3-.1.6.3.8l1.2-1.4c.1-.1.1-.1 0-.1-.3-.2-.3.1-.7.1-.3-.1-2.9-2.2-3.8-3l5.3-.2c.2 0 .7.6.7.8-.1.2-.3.4 0 .5l.9-1.1.1-.2.1-.2.1-.1c.3-.3 1.2-1.3 1.1-1.4-.3-.3-.4.3-.8 0a11 11 0 0 1-.9-1.4c-.2-.3.4-.6.6-.7.5-.3 2.1-.8 2.3.2 0 .2-.2.4-.1.5 0 0 .1.2.2.1l2.1-2.6-.2-.2c-.5.5-5.5-1.5-5.8-1.8-.1-.2-.1-.8-.3-.8Zm-.2 2.6 2.3 1-.6.3-.6.5-1.1-1.8Zm-6.6 7.7c-1.1-.1-2.2.4-3 1.3-1.2 1.5-1.1 3.7.4 4.9 1.5 1.2 3.7.9 4.9-.5 1.2-1.5 1.1-3.7-.4-4.9a4 4 0 0 0-1.9-.8Zm-1.4 1.6c.6 0 1.3.4 1.7.7.8.5 2.2 1.7 1.5 2.7l-.1.1c-.8.8-2.2.1-2.9-.5-.7-.5-2-1.7-1.2-2.7.3-.2.6-.3 1-.3Zm-3.1 4.3c-1.2-.1-2.4.5-3.3 1.6l-1.9 2.3c.2.3.5-.1.8.1.3.2 4.1 3.3 4.1 3.5.1.3-.2.4.1.6.1.1 2.9-3.4 3.2-4a3 3 0 0 0-.8-3.2c.1.1.2.1 0 0-.8-.6-1.5-.9-2.2-.9Zm-1.1 1.6h.3c1.4.4 3.4 2.1 2.1 3.6l-.4.4c-.2.2-4.2-3-4-3.2.4-.5 1.3-.9 2-.8Z" fill="#fff"/></g><rect x=".5" y=".5" width="318" height="109" rx="4.5" stroke="#7B61FF" stroke-dasharray="10 5"/><defs><clipPath id="a"><path fill="#fff" transform="translate(20 27)" d="M0 0h114.9v32.9H0z"/></clipPath><clipPath id="b"><path fill="#fff" transform="translate(155 20)" d="M0 0h138v70H0z"/></clipPath></defs></svg>