<svg width="113" height="60" fill="none" xmlns="http://www.w3.org/2000/svg"><path d="M32 21a4 4 0 0 0-4 4v2h-3v4h3v8h4v-8h3v-4h-3v-2h3v-4h-3ZM56.6 22.2c1.8-.5 3.2.3 3.8 1.2l2.1-.7c0 .9-.6 1.5-.9 1.8.7 0 1.4-.6 1.4-.6a3 3 0 0 1-1.7 2c-.2 6.8-3.3 11.2-10.6 11h-.5c-.4 0-4.4-.4-5.2-1.8 2.4.2 4.1-.4 5-1.2-1-.3-2.9-.4-3.2-3 .4.2.6.3 1.3.2-1.3-.8-2.7-1.6-2.6-3.8.3.3 1.1.5 1.4.5-.8-.2-2.1-3.3-1-5a11 11 0 0 0 7.6 3.9c.2-2.4 1.2-4 3.1-4.5Z" fill="#83B3D3"/><path fill-rule="evenodd" clip-rule="evenodd" d="M90.8 23.4c.9.2 1.6 1 1.8 1.8.4 1.5.4 4.8.4 4.8s0 3.3-.4 4.8c-.2.9-1 1.6-1.8 1.8-1.5.4-7.8.4-7.8.4s-6.3 0-7.8-.4c-.9-.2-1.6-1-1.8-1.8C73 33.3 73 30 73 30s0-3.3.4-4.8c.2-.9 1-1.6 1.8-1.8C76.7 23 83 23 83 23s6.3 0 7.8.4ZM86.2 30 81 33v-6l5.2 3Z" fill="#83B3D3"/><rect x=".5" y=".5" width="112" height="59" rx="4.5" stroke="#7B61FF" stroke-dasharray="10 5"/></svg>